<svg width="250" height="250" viewBox="0 0 250 250" xmlns="http://www.w3.org/2000/svg">
  <defs>
    <filter id="center-texture" x="-20%" y="-20%" width="140%" height="140%">
      <feTurbulence type="fractalNoise" baseFrequency="0.4" numOctaves="3" seed="10" stitchTiles="stitch"/>
      <feColorMatrix type="saturate" values="0"/>
      <feComposite in="SourceGraphic" operator="in" />
    </filter>
  </defs>
  <g transform="translate(125, 125)">
    <g>
      <path d="M0-110 C 25-100, 35-70, 0-50 C -35-70, -25-100, 0-110Z" fill="#FFC107" transform="rotate(0)"/>
      <path d="M0-110 C 25-100, 35-70, 0-50 C -35-70, -25-100, 0-110Z" fill="#FFC107" transform="rotate(30)"/>
      <path d="M0-110 C 25-100, 35-70, 0-50 C -35-70, -25-100, 0-110Z" fill="#FFC107" transform="rotate(60)"/>
      <path d="M0-110 C 25-100, 35-70, 0-50 C -35-70, -25-100, 0-110Z" fill="#FFC107" transform="rotate(90)"/>
      <path d="M0-110 C 25-100, 35-70, 0-50 C -35-70, -25-100, 0-110Z" fill="#FFC107" transform="rotate(120)"/>
      <path d="M0-110 C 25-100, 35-70, 0-50 C -35-70, -25-100, 0-110Z" fill="#FFC107" transform="rotate(150)"/>
      <path d="M0-110 C 25-100, 35-70, 0-50 C -35-70, -25-100, 0-110Z" fill="#FFC107" transform="rotate(180)"/>
      <path d="M0-110 C 25-100, 35-70, 0-50 C -35-70, -25-100, 0-110Z" fill="#FFC107" transform="rotate(210)"/>
      <path d="M0-110 C 25-100, 35-70, 0-50 C -35-70, -25-100, 0-110Z" fill="#FFC107" transform="rotate(240)"/>
      <path d="M0-110 C 25-100, 35-70, 0-50 C -35-70, -25-100, 0-110Z" fill="#FFC107" transform="rotate(270)"/>
      <path d="M0-110 C 25-100, 35-70, 0-50 C -35-70, -25-100, 0-110Z" fill="#FFC107" transform="rotate(300)"/>
      <path d="M0-110 C 25-100, 35-70, 0-50 C -35-70, -25-100, 0-110Z" fill="#FFC107" transform="rotate(330)"/>
    </g>
    <g opacity="0.75">
      <path d="M0-95 C 20-88, 30-65, 0-45 C -30-65, -20-88, 0-95Z" fill="#FFB300" transform="rotate(15)"/>
      <path d="M0-95 C 20-88, 30-65, 0-45 C -30-65, -20-88, 0-95Z" fill="#FFB300" transform="rotate(45)"/>
      <path d="M0-95 C 20-88, 30-65, 0-45 C -30-65, -20-88, 0-95Z" fill="#FFB300" transform="rotate(75)"/>
      <path d="M0-95 C 20-88, 30-65, 0-45 C -30-65, -20-88, 0-95Z" fill="#FFB300" transform="rotate(105)"/>
      <path d="M0-95 C 20-88, 30-65, 0-45 C -30-65, -20-88, 0-95Z" fill="#FFB300" transform="rotate(135)"/>
      <path d="M0-95 C 20-88, 30-65, 0-45 C -30-65, -20-88, 0-95Z" fill="#FFB300" transform="rotate(165)"/>
      <path d="M0-95 C 20-88, 30-65, 0-45 C -30-65, -20-88, 0-95Z" fill="#FFB300" transform="rotate(195)"/>
      <path d="M0-95 C 20-88, 30-65, 0-45 C -30-65, -20-88, 0-95Z" fill="#FFB300" transform="rotate(225)"/>
      <path d="M0-95 C 20-88, 30-65, 0-45 C -30-65, -20-88, 0-95Z" fill="#FFB300" transform="rotate(255)"/>
      <path d="M0-95 C 20-88, 30-65, 0-45 C -30-65, -20-88, 0-95Z" fill="#FFB300" transform="rotate(285)"/>
      <path d="M0-95 C 20-88, 30-65, 0-45 C -30-65, -20-88, 0-95Z" fill="#FFB300" transform="rotate(315)"/>
      <path d="M0-95 C 20-88, 30-65, 0-45 C -30-65, -20-88, 0-95Z" fill="#FFB300" transform="rotate(345)"/>
    </g>
    <circle cx="0" cy="0" r="55" fill="#5D4037" stroke="#4E342E" stroke-width="2"/>
    <circle cx="0" cy="0" r="55" fill="url(#center-texture)" opacity="0.2"/>
  </g>
</svg>